#N canvas 611 68 802 521 10;
#X obj 263 201 *~;
#X obj 309 349 outlet~;
#X obj 393 168 *~;
#X obj 452 213 *~;
#X obj 493 164 *~;
#X msg 545 113 3;
#X obj 545 76 loadbang;
#X floatatom 545 139 5 0 0 0 - - -;
#X obj 338 296 dac~ 1 2;
#X msg 428 118 3;
#X floatatom 428 141 5 0 0 0 - - -;
#X obj 428 94 loadbang;
#X floatatom 376 86 5 0 0 0 - - -;
#X floatatom 493 73 5 0 0 0 - - -;
#X floatatom 261 131 5 0 0 0 - - -;
#X obj 452 236 *~ 0.1;
#X obj 263 229 *~ 0.1;
#X obj 262 170 osc~ 320;
#X obj 375 119 osc~ 4;
#X obj 493 120 osc~ 5;
#X connect 0 0 16 0;
#X connect 2 0 0 1;
#X connect 3 0 15 0;
#X connect 4 0 3 1;
#X connect 5 0 7 0;
#X connect 6 0 5 0;
#X connect 7 0 4 1;
#X connect 9 0 10 0;
#X connect 10 0 2 1;
#X connect 11 0 9 0;
#X connect 12 0 18 0;
#X connect 13 0 19 0;
#X connect 14 0 17 0;
#X connect 15 0 8 1;
#X connect 16 0 8 0;
#X connect 17 0 0 0;
#X connect 17 0 3 0;
#X connect 18 0 2 0;
#X connect 19 0 4 0;
