#N canvas 801 57 799 842 10;
#X floatatom 441 31 5 0 0 0 - - -;
#X obj 441 53 mtof;
#X obj 441 195 *~;
#X obj 442 231 dac~;
#X text 482 32 Midi Pitch, f 13;
#X floatatom 496 179 5 0 1 0 - - -;
#N canvas 661 177 450 328 two_notes 0;
#X obj 171 45 inlet;
#X obj 171 68 metro 500;
#X obj 171 91 tgl 15 0 empty empty empty 17 7 0 10 -262144 -1 -1 1
1;
#X obj 171 113 sel 0 1;
#X msg 132 138 55;
#X floatatom 172 182 5 0 0 0 - - -;
#X obj 172 208 outlet;
#X msg 215 140 67;
#X obj 239 45 inlet;
#X connect 0 0 1 0;
#X connect 1 0 2 0;
#X connect 2 0 3 0;
#X connect 2 0 3 0;
#X connect 3 0 4 0;
#X connect 3 1 7 0;
#X connect 4 0 5 0;
#X connect 5 0 6 0;
#X connect 7 0 5 0;
#X connect 8 0 1 1;
#X restore 153 258 pd two_notes;
#X floatatom 153 292 5 0 0 0 - - -;
#X obj 153 226 tgl 15 0 empty empty empty 17 7 0 10 -262144 -1 -1 0
1;
#N canvas 240 296 604 435 oscs 0;
#X obj 60 260 osc~;
#X obj 161 174 * 1.015;
#X obj 160 200 osc~;
#X obj 228 199 osc~;
#X obj 228 175 * 0.503;
#X obj 301 175 * 1.469;
#X obj 301 211 osc~;
#X obj 301 234 *~ 0.5;
#X obj 391 181 * 2.01;
#X obj 391 204 osc~;
#X obj 391 227 *~ 0.25;
#X obj 55 125 inlet;
#X obj 63 323 outlet~;
#X connect 0 0 12 0;
#X connect 1 0 2 0;
#X connect 2 0 12 0;
#X connect 3 0 12 0;
#X connect 4 0 3 0;
#X connect 5 0 6 0;
#X connect 6 0 7 0;
#X connect 7 0 12 0;
#X connect 8 0 9 0;
#X connect 9 0 10 0;
#X connect 10 0 12 0;
#X connect 11 0 1 0;
#X connect 11 0 0 0;
#X connect 11 0 4 0;
#X connect 11 0 5 0;
#X connect 11 0 8 0;
#X restore 441 101 pd oscs;
#X obj 222 43 vsl 15 128 30 1000 0 0 empty empty empty 0 -9 0 10 -262144
-1 -1 0 1;
#N canvas 630 175 747 541 many_notes 0;
#X obj 219 211 table notes;
#X msg 217 53 \; notes 0 60 67 62 68 70 58;
#X text 271 31 a 6 note sequence;
#X obj 50 203 tabread notes;
#X floatatom 50 179 5 0 0 0 - - -;
#X floatatom 50 230 5 0 0 0 - - -;
#X obj 50 7 inlet;
#X obj 50 30 metro 125;
#X obj 50 57 bng 15 250 50 0 empty empty empty 17 7 0 10 -262144 -1
-1;
#X obj 50 93 i 0;
#X obj 78 123 + 1;
#X obj 78 146 % 6;
#X text 122 146 <-- 6 is length of sequence;
#X text 121 129 This setup is a simple counter;
#X obj 50 258 outlet;
#X obj 101 6 inlet;
#X obj 217 7 loadbang;
#X connect 3 0 5 0;
#X connect 4 0 3 0;
#X connect 5 0 14 0;
#X connect 6 0 7 0;
#X connect 7 0 8 0;
#X connect 8 0 9 0;
#X connect 9 0 10 0;
#X connect 9 0 4 0;
#X connect 10 0 11 0;
#X connect 11 0 9 1;
#X connect 15 0 7 1;
#X connect 16 0 1 0;
#X restore 257 259 pd many_notes;
#X obj 257 223 tgl 15 0 empty empty empty 17 7 0 10 -262144 -1 -1 0
1;
#X obj 332 44 vsl 15 128 30 1000 0 0 empty empty empty 0 -9 0 10 -262144
-1 -1 0 1;
#X obj 23 167 print;
#X obj 23 39 osc/unpackOSC;
#X obj 23 17 iemnet/udpreceive 57120;
#X obj 114 135 sel 0 1;
#X floatatom 40 92 5 0 0 0 - - -;
#X obj 23 61 osc/routeOSC /startup;
#X obj 153 314 s bof-notes;
#X obj 441 8 r bof-notes;
#X obj 496 99 loadbang;
#X obj 496 127 bng 15 250 50 0 empty empty empty 17 7 0 10 -262144
-1 -1;
#X msg 496 153 0.003;
#X connect 0 0 1 0;
#X connect 1 0 9 0;
#X connect 2 0 3 0;
#X connect 2 0 3 1;
#X connect 5 0 2 1;
#X connect 6 0 7 0;
#X connect 7 0 20 0;
#X connect 8 0 6 0;
#X connect 9 0 2 0;
#X connect 10 0 6 1;
#X connect 11 0 7 0;
#X connect 12 0 11 0;
#X connect 13 0 11 1;
#X connect 15 0 19 0;
#X connect 16 0 15 0;
#X connect 17 0 8 0;
#X connect 17 1 12 0;
#X connect 18 0 17 0;
#X connect 19 0 14 0;
#X connect 19 0 18 0;
#X connect 21 0 0 0;
#X connect 22 0 23 0;
#X connect 23 0 24 0;
#X connect 24 0 5 0;
