#N canvas 801 57 799 842 10;
#X obj 442 98 r notes;
#X floatatom 442 121 5 0 0 0 - - -;
#X obj 442 190 mtof;
#X obj 442 285 *~;
#X obj 443 321 dac~;
#X text 483 123 Midi Pitch, f 13;
#X floatatom 386 270 5 0 1 0 - - -;
#X floatatom 239 382 5 0 0 0 - - -;
#X obj 239 404 s notes;
#N canvas 240 296 604 435 oscs 0;
#X obj 60 260 osc~;
#X obj 161 174 * 1.015;
#X obj 160 200 osc~;
#X obj 228 199 osc~;
#X obj 228 175 * 0.503;
#X obj 301 175 * 1.469;
#X obj 301 211 osc~;
#X obj 301 234 *~ 0.5;
#X obj 391 181 * 2.01;
#X obj 391 204 osc~;
#X obj 391 227 *~ 0.25;
#X obj 55 125 inlet;
#X obj 63 323 outlet~;
#X connect 0 0 12 0;
#X connect 1 0 2 0;
#X connect 2 0 12 0;
#X connect 3 0 12 0;
#X connect 4 0 3 0;
#X connect 5 0 6 0;
#X connect 6 0 7 0;
#X connect 7 0 12 0;
#X connect 8 0 9 0;
#X connect 9 0 10 0;
#X connect 10 0 12 0;
#X connect 11 0 1 0;
#X connect 11 0 0 0;
#X connect 11 0 4 0;
#X connect 11 0 5 0;
#X connect 11 0 8 0;
#X restore 442 221 pd oscs;
#X obj 109 257 print;
#X obj 109 129 osc/unpackOSC;
#X floatatom 125 181 5 0 0 0 - - -;
#X msg 184 288 60;
#X msg 239 288 62;
#X msg 290 287 64;
#X obj 200 225 sel 0 1 2;
#X obj 386 115 vsl 15 128 0 0.3 0 0 empty empty empty 0 -9 0 10 -262144
-1 -1 1270 1;
#X text 297 174 volume control;
#X obj 109 151 osc/routeOSC /pdRecv;
#X obj 109 107 iemnet/udpreceive 9001;
#X obj 22 14 loadbang;
#X msg 22 148 \; pd dsp 1;
#X obj 22 108 del 100;
#X obj 386 61 bng 15 250 50 0 empty empty empty 17 7 0 10 -262144 -1
-1;
#X obj 442 155 t f b, f 16;
#N canvas 794 376 481 300 env 0;
#X obj 127 48 bng 15 250 50 0 empty empty empty 17 7 0 10 -262144 -1
-1;
#X obj 198 90 del 50;
#X obj 198 113 pack 0 500;
#X obj 127 143 line~;
#X obj 127 173 *~;
#X obj 128 199 *~;
#X obj 127 18 inlet;
#X obj 127 226 outlet~;
#X text 171 190 square the output;
#X msg 127 94 1 5;
#X text 18 93 5 is attack time;
#X floatatom 255 86 5 0 0 0 - - -;
#X text 293 85 decay time modifiable here;
#X msg 255 49 2000;
#X obj 255 30 bng 15 250 50 0 empty empty empty 17 7 0 10 -262144 -1
-1;
#X obj 255 8 loadbang;
#X connect 0 0 1 0;
#X connect 0 0 9 0;
#X connect 1 0 2 0;
#X connect 2 0 3 0;
#X connect 3 0 4 0;
#X connect 3 0 4 1;
#X connect 4 0 5 0;
#X connect 4 0 5 1;
#X connect 5 0 7 0;
#X connect 6 0 0 0;
#X connect 9 0 3 0;
#X connect 11 0 2 1;
#X connect 13 0 11 0;
#X connect 14 0 13 0;
#X connect 15 0 14 0;
#X restore 535 224 pd env;
#X obj 443 252 *~;
#X msg 386 84 0.1;
#X connect 0 0 1 0;
#X connect 1 0 25 0;
#X connect 2 0 9 0;
#X connect 3 0 4 0;
#X connect 3 0 4 1;
#X connect 6 0 3 1;
#X connect 7 0 8 0;
#X connect 9 0 27 0;
#X connect 11 0 19 0;
#X connect 12 0 16 0;
#X connect 13 0 7 0;
#X connect 14 0 7 0;
#X connect 15 0 7 0;
#X connect 16 0 13 0;
#X connect 16 1 14 0;
#X connect 16 2 15 0;
#X connect 17 0 6 0;
#X connect 19 0 10 0;
#X connect 19 0 12 0;
#X connect 20 0 11 0;
#X connect 21 0 23 0;
#X connect 21 0 24 0;
#X connect 23 0 22 0;
#X connect 24 0 28 0;
#X connect 25 0 2 0;
#X connect 25 1 26 0;
#X connect 26 0 27 1;
#X connect 27 0 3 0;
#X connect 28 0 17 0;
