#N canvas 639 146 799 842 10;
#X obj 111 172 *~;
#X obj 112 208 dac~;
#X floatatom 141 155 5 0 0.1 0 - - -;
#N canvas 290 357 450 300 unsig 0;
#X obj 171 62 inlet~;
#X obj 172 185 snapshot~;
#X obj 172 210 outlet;
#X obj 233 10 loadbang;
#X obj 233 71 t b b;
#X obj 277 95 f \$1;
#X obj 277 120 sel 0;
#X obj 233 41 bng 15 250 50 0 empty empty empty 17 7 0 10 -262144 -1
-1;
#X obj 233 148 metro 10;
#X connect 0 0 1 0;
#X connect 1 0 2 0;
#X connect 3 0 7 0;
#X connect 4 0 8 0;
#X connect 4 1 5 0;
#X connect 5 0 6 0;
#X connect 6 1 8 1;
#X connect 7 0 4 0;
#X connect 8 0 1 0;
#X restore 214 103 pd unsig;
#X obj 214 127 autoscale 0 100;
#X obj 301 104 bng 15 250 50 0 empty empty empty 17 7 0 10 -262144
-1 -1;
#X obj 141 102 loadbang;
#N canvas 376 124 630 457 ondulator 0;
#X obj 157 74 loadbang;
#X floatatom 157 168 5 0 0 0 - - -;
#X obj 157 190 mtof;
#N canvas 866 337 604 435 oscs 0;
#X obj 60 260 osc~;
#X obj 161 174 * 1.015;
#X obj 160 200 osc~;
#X obj 228 199 osc~;
#X obj 228 175 * 0.503;
#X obj 301 175 * 1.469;
#X obj 301 211 osc~;
#X obj 301 234 *~ 0.5;
#X obj 391 181 * 2.01;
#X obj 391 204 osc~;
#X obj 391 227 *~ 0.25;
#X obj 55 125 inlet;
#X obj 63 323 outlet~;
#X connect 0 0 12 0;
#X connect 1 0 2 0;
#X connect 2 0 12 0;
#X connect 3 0 12 0;
#X connect 4 0 3 0;
#X connect 5 0 6 0;
#X connect 6 0 7 0;
#X connect 7 0 12 0;
#X connect 8 0 9 0;
#X connect 9 0 10 0;
#X connect 10 0 12 0;
#X connect 11 0 1 0;
#X connect 11 0 0 0;
#X connect 11 0 4 0;
#X connect 11 0 5 0;
#X connect 11 0 8 0;
#X restore 157 213 pd oscs;
#X obj 230 196 osc~ 1;
#X obj 231 234 *~;
#X obj 156 238 *~;
#X obj 156 264 *~;
#X floatatom 230 172 5 0 0 0 - - -;
#X obj 231 257 +~ 1;
#X floatatom 294 196 3 0 0 0 - - -;
#X msg 294 149 0.4;
#X msg 230 148 0.2;
#X msg 157 138 69;
#X obj 231 280 outlet~;
#X obj 156 287 outlet~;
#X obj 157 103 bng 15 250 50 0 empty empty empty 17 7 0 10 -262144
-1 -1;
#X obj 105 73 inlet;
#X connect 0 0 16 0;
#X connect 1 0 2 0;
#X connect 2 0 3 0;
#X connect 3 0 6 0;
#X connect 4 0 5 0;
#X connect 5 0 9 0;
#X connect 6 0 7 0;
#X connect 6 0 7 1;
#X connect 7 0 15 0;
#X connect 8 0 4 0;
#X connect 9 0 6 1;
#X connect 9 0 14 0;
#X connect 10 0 5 1;
#X connect 11 0 10 0;
#X connect 12 0 8 0;
#X connect 13 0 1 0;
#X connect 16 0 13 0;
#X connect 16 0 12 0;
#X connect 16 0 11 0;
#X connect 17 0 16 0;
#X restore 110 45 pd ondulator;
#X obj 110 17 bng 15 250 50 0 empty empty empty 17 7 0 10 -262144 -1
-1;
#X text 337 105 [pd unsig] converts frequency to a number. Autoscale
then maps highest and lowest value to a predefined range (0 to 100
in this case);
#X floatatom 214 173 5 0 0 0 - - -;
#X obj 39 11 loadbang;
#X msg 39 91 \; pd dsp 1;
#X obj 39 51 del 100;
#X msg 332 195 connect 127.0.0.1 9000;
#X msg 386 233 disconnect;
#X obj 332 265 iemnet/udpsend;
#X floatatom 332 299 5 0 0 0 - - -;
#X obj 332 161 loadbang;
#X obj 214 220 osc/packOSC;
#X obj 214 151 int;
#X msg 214 196 send /pyRecv \$1;
#X msg 141 128 0.003;
#X obj 301 9 loadbang;
#X obj 301 32 del 500;
#X text 357 34 buffered bang at startup to reset autoscaling;
#X connect 0 0 1 0;
#X connect 0 0 1 1;
#X connect 2 0 0 1;
#X connect 3 0 4 0;
#X connect 4 0 20 0;
#X connect 5 0 4 3;
#X connect 6 0 22 0;
#X connect 7 0 0 0;
#X connect 7 1 3 0;
#X connect 8 0 7 0;
#X connect 10 0 21 0;
#X connect 11 0 13 0;
#X connect 13 0 12 0;
#X connect 14 0 16 0;
#X connect 15 0 16 0;
#X connect 16 0 17 0;
#X connect 18 0 14 0;
#X connect 19 0 16 0;
#X connect 20 0 10 0;
#X connect 21 0 19 0;
#X connect 22 0 2 0;
#X connect 23 0 24 0;
#X connect 24 0 5 0;
