#N canvas 801 57 799 842 10;
#X obj 110 547 dac~;
#N canvas 17 465 799 392 cymbal 0;
#X obj 26 204 *~;
#X floatatom 176 146 5 0 0 0 - - -;
#N canvas 0 57 799 392 filters 0;
#X obj 24 67 biquad~ 0.638282 -0.176456 0.134544 0.269087 0.134544
;
#X obj 23 92 biquad~ 0.847723 -0.562489 0.602553 -1.20511 0.602553
;
#X obj 22 117 biquad~ 0.847723 -0.562489 0.602553 -1.20511 0.602553
;
#X text 550 95 FILTERS resonant lowpass at 7000Hz \, Q= 0.6 resonant
highpass at 6800Hz \, Q= 1.5 another one of these resonant highpass
at 1200Hz \, Q= 1.5;
#X obj 23 145 biquad~ 1.86507 -0.892661 0.939432 -1.87886 0.939432
;
#X obj 22 221 outlet~;
#X obj 22 24 inlet~;
#X connect 0 0 1 0;
#X connect 1 0 2 0;
#X connect 2 0 4 0;
#X connect 4 0 5 0;
#X connect 6 0 0 0;
#X restore 26 109 pd filters;
#X obj 26 43 noise~;
#N canvas 0 57 799 392 six_pulse_oscs 0;
#X obj 18 163 expr~ $v1 > 0.55;
#X obj 18 140 phasor~;
#X obj 141 161 expr~ $v1 > 0.55;
#X obj 141 138 phasor~;
#X obj 275 165 expr~ $v1 > 0.55;
#X obj 275 142 phasor~;
#X obj 393 166 expr~ $v1 > 0.55;
#X obj 393 143 phasor~;
#X obj 506 167 expr~ $v1 > 0.55;
#X obj 506 144 phasor~;
#X obj 623 167 expr~ $v1 > 0.55;
#X obj 623 144 phasor~;
#X obj 132 101 * 1.342;
#X obj 383 100 * 1.6532;
#X obj 276 100 * 1.2312;
#X obj 503 102 * 1.8523;
#X obj 624 102 * 2.1523;
#X obj 25 43 inlet;
#X obj 32 225 *~ 0.9;
#X obj 32 248 outlet~;
#X connect 0 0 18 0;
#X connect 1 0 0 0;
#X connect 2 0 18 0;
#X connect 3 0 2 0;
#X connect 4 0 18 0;
#X connect 5 0 4 0;
#X connect 6 0 18 0;
#X connect 7 0 6 0;
#X connect 8 0 18 0;
#X connect 9 0 8 0;
#X connect 10 0 18 0;
#X connect 11 0 10 0;
#X connect 12 0 3 0;
#X connect 13 0 7 0;
#X connect 14 0 5 0;
#X connect 15 0 9 0;
#X connect 16 0 11 0;
#X connect 17 0 1 0;
#X connect 17 0 12 0;
#X connect 17 0 14 0;
#X connect 17 0 13 0;
#X connect 17 0 15 0;
#X connect 17 0 16 0;
#X connect 18 0 19 0;
#X restore 278 83 pd six_pulse_oscs;
#X floatatom 278 53 5 0 0 0 - - -;
#X obj 25 144 freeverb~;
#X obj 44 236 delwrite~ \$0-del 10;
#X obj 44 276 delread~ \$0-del 5;
#X text 217 144 duration;
#X obj 176 115 inlet;
#X obj 278 28 inlet;
#X text 391 41 pitch;
#N canvas 0 57 450 300 vol_env 0;
#X obj 91 103 vline~;
#X obj 91 11 inlet;
#X obj 92 154 outlet~;
#X obj 136 12 inlet;
#X msg 92 75 1 2 \, 0.4 \$1 2 \, 0 \$1 \$1;
#X obj 91 46 f 250;
#X connect 0 0 2 0;
#X connect 1 0 5 0;
#X connect 3 0 5 1;
#X connect 4 0 0 0;
#X connect 5 0 4 0;
#X restore 161 182 pd vol_env;
#X obj 100 137 inlet;
#X obj 26 327 outlet~;
#X msg 333 52 220;
#X obj 333 20 loadbang;
#X connect 0 0 7 0;
#X connect 0 0 15 0;
#X connect 1 0 13 1;
#X connect 2 0 6 0;
#X connect 3 0 2 0;
#X connect 4 0 2 0;
#X connect 5 0 4 0;
#X connect 6 0 0 0;
#X connect 8 0 15 0;
#X connect 10 0 1 0;
#X connect 11 0 5 0;
#X connect 13 0 0 1;
#X connect 14 0 13 0;
#X connect 16 0 5 0;
#X connect 17 0 16 0;
#X restore 25 367 pd cymbal;
#X obj 25 296 bng 15 250 50 0 empty empty empty 17 7 0 10 -262144 -1
-1;
#X floatatom 91 336 5 0 0 0 - - -;
#X floatatom 50 337 5 0 0 0 - - -;
#X obj 12 254 r hh;
#X obj 374 310 metro 120;
#X obj 374 333 s hh;
#X obj 423 55 loadbang;
#X obj 423 148 vsl 15 128 50 400 0 0 empty empty empty 0 -9 0 10 -262144
-1 -1 7257 1;
#X floatatom 425 281 5 0 0 0 - - -;
#X obj 374 277 tgl 15 0 empty empty empty 17 7 0 10 -262144 -1 -1 1
1;
#X obj 231 473 hsl 128 15 0 0.2 0 0 empty empty empty -2 -8 0 10 -262144
-1 -1 200 1;
#X obj 110 512 *~ 0.1;
#X floatatom 228 497 5 0 0 0 - - -;
#X obj 127 207 print;
#X obj 127 79 osc/unpackOSC;
#X floatatom 144 132 5 0 0 0 - - -;
#X msg 423 108 250;
#X obj 227 418 loadbang;
#X text 284 496 volume;
#N canvas 0 57 799 533 polytone 0;
#X text 72 274 Midi Pitch, f 13;
#X floatatom 11 274 5 0 0 0 - - -;
#N canvas 630 159 747 541 many_notes 0;
#X obj 219 211 table notes;
#X msg 217 53 \; notes 0 60 67 62 68 70 58;
#X text 271 31 a 6 note sequence;
#X obj 50 203 tabread notes;
#X floatatom 50 179 5 0 0 0 - - -;
#X floatatom 50 230 5 0 0 0 - - -;
#X obj 50 7 inlet;
#X obj 50 30 metro 125;
#X obj 50 57 bng 15 250 50 0 empty empty empty 17 7 0 10 -262144 -1
-1;
#X obj 50 93 i 0;
#X obj 78 123 + 1;
#X obj 78 146 % 6;
#X text 122 146 <-- 6 is length of sequence;
#X text 121 129 This setup is a simple counter;
#X obj 50 258 outlet;
#X obj 101 6 inlet;
#X obj 217 7 loadbang;
#X connect 3 0 5 0;
#X connect 4 0 3 0;
#X connect 5 0 14 0;
#X connect 6 0 7 0;
#X connect 7 0 8 0;
#X connect 8 0 9 0;
#X connect 9 0 10 0;
#X connect 9 0 4 0;
#X connect 10 0 11 0;
#X connect 11 0 9 1;
#X connect 15 0 7 1;
#X connect 16 0 1 0;
#X restore 59 203 pd many_notes;
#X obj 59 167 tgl 15 0 empty empty empty 17 7 0 10 -262144 -1 -1 1
1;
#X obj 134 65 vsl 15 100 30 700 0 0 empty empty empty 0 -9 0 10 -4032
-1 -1 3694 1;
#X msg 11 301 next \$1;
#X obj 11 325 clone synth.cl 64;
#X obj 59 233 + 22;
#X obj 101 234 pipe 80;
#X floatatom 134 176 5 0 0 0 - - -;
#X obj 134 11 loadbang;
#X msg 134 35 280;
#X obj 59 126 inlet;
#X obj 11 349 outlet~;
#X connect 1 0 5 0;
#X connect 2 0 1 0;
#X connect 2 0 7 0;
#X connect 2 0 8 0;
#X connect 3 0 2 0;
#X connect 4 0 9 0;
#X connect 5 0 6 0;
#X connect 6 0 13 0;
#X connect 7 0 1 0;
#X connect 8 0 1 0;
#X connect 9 0 2 1;
#X connect 10 0 11 0;
#X connect 11 0 4 0;
#X connect 12 0 3 0;
#X restore 264 332 pd polytone;
#X obj 264 300 tgl 15 0 empty empty empty 17 7 0 10 -262144 -1 -1 1
1;
#X msg 326 97 \; hh_decay 220 \; hh_pitch 520 \;;
#X obj 127 57 iemnet/udpreceive 8001;
#X obj 127 101 osc/routeOSC /pdRecv;
#X obj 22 54 loadbang;
#X msg 22 148 \; pd dsp 1;
#X obj 22 108 del 100;
#X obj 50 245 vsl 15 70 50 1000 0 0 empty hh_decay empty 0 -9 0 10
-4032 -1 -1 1235 1;
#X obj 91 245 vsl 15 70 100 1000 0 0 empty hh_pitch empty 0 -9 0 10
-260097 -1 -1 3220 1;
#X msg 228 448 0.02;
#X obj 181 423 *~ 0.2;
#N canvas 0 57 799 842 modulator 1;
#X obj 263 201 *~;
#X obj 268 256 outlet~;
#X obj 393 168 *~;
#X obj 493 164 *~;
#X msg 428 118 3;
#X floatatom 428 141 5 0 0 0 - - -;
#X floatatom 376 86 5 0 0 0 - - -;
#X floatatom 493 73 5 0 0 0 - - -;
#X floatatom 261 131 5 0 0 0 - - -;
#X obj 262 170 osc~ 320;
#X obj 375 119 osc~ 4;
#X obj 493 120 osc~ 5;
#X obj 251 34 inlet;
#X obj 251 60 sel 0 1;
#X msg 237 94 0;
#X obj 428 91 loadbang;
#X msg 546 117 3;
#X floatatom 545 149 5 0 0 0 - - -;
#X obj 546 90 loadbang;
#X obj 166 51 loadbang;
#X msg 292 94 400;
#X connect 0 0 1 0;
#X connect 2 0 0 1;
#X connect 3 0 0 1;
#X connect 4 0 5 0;
#X connect 5 0 2 1;
#X connect 6 0 10 0;
#X connect 7 0 11 0;
#X connect 8 0 9 0;
#X connect 9 0 0 0;
#X connect 10 0 2 0;
#X connect 11 0 3 0;
#X connect 12 0 13 0;
#X connect 13 0 14 0;
#X connect 13 1 20 0;
#X connect 14 0 8 0;
#X connect 15 0 4 0;
#X connect 16 0 17 0;
#X connect 17 0 3 1;
#X connect 18 0 16 0;
#X connect 19 0 14 0;
#X connect 20 0 8 0;
#X restore 158 335 pd modulator;
#X obj 158 304 tgl 15 0 empty empty empty 17 7 0 10 -262144 -1 -1 1
1;
#X obj 133 398 *~ 0.6;
#X obj 218 175 sel 0 1 2;
#X connect 1 0 13 0;
#X connect 2 0 1 0;
#X connect 3 0 1 2;
#X connect 4 0 1 1;
#X connect 5 0 2 0;
#X connect 6 0 7 0;
#X connect 8 0 23 0;
#X connect 8 0 18 0;
#X connect 9 0 10 0;
#X connect 10 0 6 1;
#X connect 11 0 6 0;
#X connect 12 0 14 0;
#X connect 13 0 0 0;
#X connect 13 0 0 1;
#X connect 14 0 13 1;
#X connect 16 0 25 0;
#X connect 17 0 36 0;
#X connect 18 0 9 0;
#X connect 19 0 31 0;
#X connect 21 0 32 0;
#X connect 22 0 21 0;
#X connect 24 0 16 0;
#X connect 25 0 15 0;
#X connect 25 0 17 0;
#X connect 26 0 28 0;
#X connect 28 0 27 0;
#X connect 29 0 4 0;
#X connect 30 0 3 0;
#X connect 31 0 12 0;
#X connect 32 0 13 0;
#X connect 33 0 35 0;
#X connect 34 0 33 0;
#X connect 35 0 13 0;
#X connect 36 0 34 0;
#X connect 36 1 22 0;
#X connect 36 2 11 0;
