#N canvas 0 57 450 300 10;
#X obj 17 129 osc~;
#X obj 17 240 *~;
#X msg 72 122 1 5;
#X obj 105 168 line~;
#X obj 105 191 *~;
#X obj 105 214 *~;
#X obj 72 97 bng 15 250 50 0 empty empty empty 17 7 0 10 -262144 -1
-1;
#X obj 105 120 del 10;
#X obj 105 143 pack 0 500;
#X floatatom 162 98 5 0 0 0 - - -, f 5;
#X obj 17 66 mtof;
#X obj 17 35 inlet;
#X obj 17 272 outlet~;
#X obj 162 19 loadbang;
#X obj 162 46 bng 15 250 50 0 empty empty empty 17 7 0 10 -262144 -1
-1;
#X msg 162 66 2000;
#X connect 0 0 1 0;
#X connect 1 0 12 0;
#X connect 2 0 3 0;
#X connect 3 0 4 0;
#X connect 3 0 4 1;
#X connect 4 0 5 0;
#X connect 4 0 5 1;
#X connect 5 0 1 1;
#X connect 6 0 2 0;
#X connect 6 0 7 0;
#X connect 7 0 8 0;
#X connect 8 0 3 0;
#X connect 9 0 8 1;
#X connect 10 0 0 0;
#X connect 10 0 6 0;
#X connect 11 0 10 0;
#X connect 13 0 14 0;
#X connect 14 0 15 0;
#X connect 15 0 9 0;
